<mxfile host="Electron" modified="2023-06-26T13:37:35.148Z" agent="Mozilla/5.0 (X11; Linux x86_64) AppleWebKit/537.36 (KHTML, like Gecko) draw.io/21.3.7 Chrome/112.0.5615.204 Electron/24.5.0 Safari/537.36" etag="SlLX4CbPm6yWZWh4GBCh" version="21.3.7" type="device">
  <diagram id="o-GlBjIIxTXlQrCIFuJj" name="Page-1">
    <mxGraphModel dx="2074" dy="1198" grid="1" gridSize="10" guides="1" tooltips="1" connect="1" arrows="1" fold="1" page="1" pageScale="1" pageWidth="827" pageHeight="1169" math="0" shadow="0">
      <root>
        <mxCell id="0" />
        <mxCell id="1" parent="0" />
        <mxCell id="S184uQcExb8d7YAL1wuZ-16" value="" style="group;verticalAlign=middle;" parent="1" vertex="1" connectable="0">
          <mxGeometry x="360" y="400" width="290" height="40" as="geometry" />
        </mxCell>
        <mxCell id="S184uQcExb8d7YAL1wuZ-11" value="&lt;span style=&quot;font-weight: 400; font-size: 20px;&quot;&gt;&lt;font color=&quot;#82b366&quot; style=&quot;font-size: 20px;&quot;&gt;gcd = &lt;i style=&quot;&quot;&gt;f&lt;sub&gt;traditional&lt;/sub&gt;&lt;/i&gt;(&amp;nbsp; &amp;nbsp; &amp;nbsp; &amp;nbsp; &amp;nbsp; &amp;nbsp; &amp;nbsp; &amp;nbsp;)&lt;/font&gt;&lt;/span&gt;" style="text;strokeColor=none;fillColor=none;html=1;fontSize=20;fontStyle=1;verticalAlign=top;align=center;rounded=1;shadow=0;glass=0;sketch=0;fontColor=#000000;labelPosition=center;verticalLabelPosition=middle;" parent="S184uQcExb8d7YAL1wuZ-16" vertex="1">
          <mxGeometry width="290" height="22.85714285714285" as="geometry" />
        </mxCell>
        <mxCell id="S184uQcExb8d7YAL1wuZ-13" value="" style="rounded=1;whiteSpace=wrap;html=1;shadow=0;glass=0;sketch=0;fontSize=20;strokeWidth=2;fillColor=#d5e8d4;strokeColor=#82b366;" parent="S184uQcExb8d7YAL1wuZ-16" vertex="1">
          <mxGeometry x="176" y="10.42" width="72" height="20" as="geometry" />
        </mxCell>
        <mxCell id="S184uQcExb8d7YAL1wuZ-18" value="" style="group;fontColor=#2B7AF0;" parent="1" vertex="1" connectable="0">
          <mxGeometry x="130" y="400" width="240" height="40" as="geometry" />
        </mxCell>
        <mxCell id="S184uQcExb8d7YAL1wuZ-12" value="&lt;span style=&quot;font-weight: 400;&quot;&gt;&lt;font color=&quot;#2b7af0&quot; style=&quot;&quot;&gt;gcd = &lt;i style=&quot;&quot;&gt;f&lt;span style=&quot;font-size: 16.6667px;&quot;&gt;&lt;sub&gt;pysmo&lt;/sub&gt;&lt;/span&gt;&lt;/i&gt;(&amp;nbsp; &amp;nbsp; &amp;nbsp; &amp;nbsp;,&amp;nbsp; &amp;nbsp; &amp;nbsp; &amp;nbsp;)&lt;/font&gt;&lt;/span&gt;" style="text;strokeColor=none;fillColor=none;html=1;fontSize=20;fontStyle=1;verticalAlign=middle;align=center;rounded=1;shadow=0;glass=0;sketch=0;fontColor=#000000;" parent="S184uQcExb8d7YAL1wuZ-18" vertex="1">
          <mxGeometry x="-10" width="240" height="40" as="geometry" />
        </mxCell>
        <mxCell id="S184uQcExb8d7YAL1wuZ-14" value="" style="rounded=1;whiteSpace=wrap;html=1;shadow=0;glass=0;sketch=0;fontSize=20;strokeWidth=2;fillColor=#e1d5e7;strokeColor=#9673a6;" parent="S184uQcExb8d7YAL1wuZ-18" vertex="1">
          <mxGeometry x="124" y="10" width="30" height="20" as="geometry" />
        </mxCell>
        <mxCell id="S184uQcExb8d7YAL1wuZ-17" value="" style="rounded=1;whiteSpace=wrap;html=1;shadow=0;glass=0;sketch=0;fontSize=20;strokeWidth=2;fillColor=#ffe6cc;strokeColor=#d79b00;" parent="S184uQcExb8d7YAL1wuZ-18" vertex="1">
          <mxGeometry x="169" y="10" width="30" height="20" as="geometry" />
        </mxCell>
        <mxCell id="l5o7uhjcQKZD2waBQKCn-8" value="" style="endArrow=classic;html=1;rounded=0;entryX=0.5;entryY=0;entryDx=0;entryDy=0;exitX=0.75;exitY=1;exitDx=0;exitDy=0;fillColor=#d5e8d4;strokeColor=#82b366;strokeWidth=2;" parent="1" source="l5o7uhjcQKZD2waBQKCn-2" target="S184uQcExb8d7YAL1wuZ-13" edge="1">
          <mxGeometry width="50" height="50" relative="1" as="geometry">
            <mxPoint x="390" y="520" as="sourcePoint" />
            <mxPoint x="440" y="470" as="targetPoint" />
          </mxGeometry>
        </mxCell>
        <mxCell id="l5o7uhjcQKZD2waBQKCn-2" value="" style="rounded=1;whiteSpace=wrap;html=1;shadow=0;glass=0;sketch=0;fontSize=20;strokeWidth=4;fillColor=#d5e8d4;strokeColor=#82b366;container=0;" parent="1" vertex="1">
          <mxGeometry x="130" y="250" width="540" height="80" as="geometry" />
        </mxCell>
        <mxCell id="l5o7uhjcQKZD2waBQKCn-3" value="&lt;font color=&quot;#d79b00&quot;&gt;Event&lt;/font&gt;" style="rounded=1;whiteSpace=wrap;html=1;fillColor=#ffe6cc;strokeColor=#d79b00;fontSize=20;sketch=0;strokeWidth=2;container=0;" parent="1" vertex="1">
          <mxGeometry x="260" y="260" width="110" height="60" as="geometry" />
        </mxCell>
        <mxCell id="l5o7uhjcQKZD2waBQKCn-4" value="&lt;font color=&quot;#b85450&quot;&gt;Seismogram&lt;/font&gt;" style="rounded=1;whiteSpace=wrap;html=1;fillColor=#f8cecc;strokeColor=#b85450;fontSize=20;sketch=0;glass=0;strokeWidth=2;container=0;" parent="1" vertex="1">
          <mxGeometry x="380" y="260" width="280" height="60" as="geometry" />
        </mxCell>
        <mxCell id="l5o7uhjcQKZD2waBQKCn-5" value="&lt;font color=&quot;#9673a6&quot;&gt;Station&lt;/font&gt;" style="rounded=1;whiteSpace=wrap;html=1;fillColor=#e1d5e7;strokeColor=#9673a6;fontSize=20;sketch=0;strokeWidth=2;container=0;" parent="1" vertex="1">
          <mxGeometry x="140" y="260" width="110" height="60" as="geometry" />
        </mxCell>
        <mxCell id="l5o7uhjcQKZD2waBQKCn-9" value="" style="endArrow=classic;html=1;rounded=0;exitX=0.5;exitY=1;exitDx=0;exitDy=0;entryX=0.5;entryY=0;entryDx=0;entryDy=0;strokeColor=#d79b00;strokeWidth=2;fillColor=#ffe6cc;" parent="1" source="l5o7uhjcQKZD2waBQKCn-3" target="S184uQcExb8d7YAL1wuZ-17" edge="1">
          <mxGeometry width="50" height="50" relative="1" as="geometry">
            <mxPoint x="390" y="520" as="sourcePoint" />
            <mxPoint x="440" y="470" as="targetPoint" />
          </mxGeometry>
        </mxCell>
        <mxCell id="l5o7uhjcQKZD2waBQKCn-10" value="" style="endArrow=classic;html=1;rounded=0;exitX=0.5;exitY=1;exitDx=0;exitDy=0;entryX=0.5;entryY=0;entryDx=0;entryDy=0;strokeWidth=2;strokeColor=#9673a6;fillColor=#e1d5e7;" parent="1" source="l5o7uhjcQKZD2waBQKCn-5" target="S184uQcExb8d7YAL1wuZ-14" edge="1">
          <mxGeometry width="50" height="50" relative="1" as="geometry">
            <mxPoint x="390" y="520" as="sourcePoint" />
            <mxPoint x="440" y="470" as="targetPoint" />
          </mxGeometry>
        </mxCell>
        <mxCell id="13UsZNeRruSqRV3vKV0w-1" value="&lt;font style=&quot;font-size: 14px;&quot; color=&quot;#2b7af0&quot;&gt;Location&lt;/font&gt;" style="rounded=1;whiteSpace=wrap;html=1;fillColor=#dae8fc;strokeColor=#2B7AF0;fontSize=19;sketch=0;strokeWidth=2;container=0;verticalAlign=middle;align=center;" parent="1" vertex="1">
          <mxGeometry x="190" y="350" width="70" height="30" as="geometry" />
        </mxCell>
        <mxCell id="13UsZNeRruSqRV3vKV0w-2" value="&lt;font style=&quot;font-size: 14px;&quot; color=&quot;#2b7af0&quot;&gt;Location&lt;/font&gt;" style="rounded=1;whiteSpace=wrap;html=1;fillColor=#dae8fc;strokeColor=#2B7AF0;fontSize=19;sketch=0;strokeWidth=2;container=0;verticalAlign=middle;align=center;" parent="1" vertex="1">
          <mxGeometry x="280" y="350" width="70" height="30" as="geometry" />
        </mxCell>
      </root>
    </mxGraphModel>
  </diagram>
</mxfile>
